<mxfile host="Electron" agent="Mozilla/5.0 (Windows NT 10.0; Win64; x64) AppleWebKit/537.36 (KHTML, like Gecko) draw.io/26.2.2 Chrome/134.0.6998.178 Electron/35.1.2 Safari/537.36" version="26.2.2">
  <diagram id="C5RBs43oDa-KdzZeNtuy" name="Page-1">
    <mxGraphModel dx="1208" dy="615" grid="1" gridSize="10" guides="1" tooltips="1" connect="1" arrows="1" fold="1" page="1" pageScale="1" pageWidth="1920" pageHeight="1200" math="0" shadow="0">
      <root>
        <mxCell id="WIyWlLk6GJQsqaUBKTNV-0" />
        <mxCell id="WIyWlLk6GJQsqaUBKTNV-1" parent="WIyWlLk6GJQsqaUBKTNV-0" />
        <mxCell id="3ZTK0G1BTgdR5SrSawnU-3" style="edgeStyle=orthogonalEdgeStyle;rounded=0;orthogonalLoop=1;jettySize=auto;html=1;exitX=0.5;exitY=1;exitDx=0;exitDy=0;exitPerimeter=0;" edge="1" parent="WIyWlLk6GJQsqaUBKTNV-1" source="3ZTK0G1BTgdR5SrSawnU-0" target="3ZTK0G1BTgdR5SrSawnU-2">
          <mxGeometry relative="1" as="geometry" />
        </mxCell>
        <mxCell id="3ZTK0G1BTgdR5SrSawnU-0" value="Inicio" style="strokeWidth=2;html=1;shape=mxgraph.flowchart.start_1;whiteSpace=wrap;" vertex="1" parent="WIyWlLk6GJQsqaUBKTNV-1">
          <mxGeometry x="720" y="40" width="360" height="40" as="geometry" />
        </mxCell>
        <mxCell id="3ZTK0G1BTgdR5SrSawnU-7" style="edgeStyle=orthogonalEdgeStyle;rounded=0;orthogonalLoop=1;jettySize=auto;html=1;exitX=0.5;exitY=1;exitDx=0;exitDy=0;entryX=0.5;entryY=0;entryDx=0;entryDy=0;" edge="1" parent="WIyWlLk6GJQsqaUBKTNV-1" source="3ZTK0G1BTgdR5SrSawnU-2" target="3ZTK0G1BTgdR5SrSawnU-5">
          <mxGeometry relative="1" as="geometry" />
        </mxCell>
        <mxCell id="3ZTK0G1BTgdR5SrSawnU-2" value="int num1, num2, resultado;" style="rounded=0;whiteSpace=wrap;html=1;" vertex="1" parent="WIyWlLk6GJQsqaUBKTNV-1">
          <mxGeometry x="720" y="120" width="360" height="40" as="geometry" />
        </mxCell>
        <mxCell id="3ZTK0G1BTgdR5SrSawnU-9" style="edgeStyle=orthogonalEdgeStyle;rounded=0;orthogonalLoop=1;jettySize=auto;html=1;exitX=0.5;exitY=1;exitDx=0;exitDy=0;entryX=0.5;entryY=0;entryDx=0;entryDy=0;" edge="1" parent="WIyWlLk6GJQsqaUBKTNV-1" source="3ZTK0G1BTgdR5SrSawnU-5" target="3ZTK0G1BTgdR5SrSawnU-8">
          <mxGeometry relative="1" as="geometry" />
        </mxCell>
        <mxCell id="3ZTK0G1BTgdR5SrSawnU-5" value="Imprimir(&quot;Ingrese el primer número&quot;);" style="shape=parallelogram;html=1;strokeWidth=2;perimeter=parallelogramPerimeter;whiteSpace=wrap;rounded=1;arcSize=12;size=0.23;" vertex="1" parent="WIyWlLk6GJQsqaUBKTNV-1">
          <mxGeometry x="720" y="200" width="360" height="40" as="geometry" />
        </mxCell>
        <mxCell id="3ZTK0G1BTgdR5SrSawnU-11" style="edgeStyle=orthogonalEdgeStyle;rounded=0;orthogonalLoop=1;jettySize=auto;html=1;exitX=0.5;exitY=1;exitDx=0;exitDy=0;entryX=0.5;entryY=0;entryDx=0;entryDy=0;" edge="1" parent="WIyWlLk6GJQsqaUBKTNV-1" source="3ZTK0G1BTgdR5SrSawnU-8" target="3ZTK0G1BTgdR5SrSawnU-10">
          <mxGeometry relative="1" as="geometry" />
        </mxCell>
        <mxCell id="3ZTK0G1BTgdR5SrSawnU-8" value="num1 = input.nextInt();" style="shape=parallelogram;html=1;strokeWidth=2;perimeter=parallelogramPerimeter;whiteSpace=wrap;rounded=1;arcSize=12;size=0.23;" vertex="1" parent="WIyWlLk6GJQsqaUBKTNV-1">
          <mxGeometry x="720" y="280" width="360" height="40" as="geometry" />
        </mxCell>
        <mxCell id="3ZTK0G1BTgdR5SrSawnU-13" style="edgeStyle=orthogonalEdgeStyle;rounded=0;orthogonalLoop=1;jettySize=auto;html=1;exitX=0.5;exitY=1;exitDx=0;exitDy=0;entryX=0.5;entryY=0;entryDx=0;entryDy=0;" edge="1" parent="WIyWlLk6GJQsqaUBKTNV-1" source="3ZTK0G1BTgdR5SrSawnU-10" target="3ZTK0G1BTgdR5SrSawnU-12">
          <mxGeometry relative="1" as="geometry" />
        </mxCell>
        <mxCell id="3ZTK0G1BTgdR5SrSawnU-10" value="Imprimir(&quot;Ingrese el segundo número&quot;);" style="shape=parallelogram;html=1;strokeWidth=2;perimeter=parallelogramPerimeter;whiteSpace=wrap;rounded=1;arcSize=12;size=0.23;" vertex="1" parent="WIyWlLk6GJQsqaUBKTNV-1">
          <mxGeometry x="720" y="360" width="360" height="40" as="geometry" />
        </mxCell>
        <mxCell id="3ZTK0G1BTgdR5SrSawnU-15" style="edgeStyle=orthogonalEdgeStyle;rounded=0;orthogonalLoop=1;jettySize=auto;html=1;exitX=0.5;exitY=1;exitDx=0;exitDy=0;entryX=0.5;entryY=0;entryDx=0;entryDy=0;" edge="1" parent="WIyWlLk6GJQsqaUBKTNV-1" source="3ZTK0G1BTgdR5SrSawnU-12" target="3ZTK0G1BTgdR5SrSawnU-14">
          <mxGeometry relative="1" as="geometry" />
        </mxCell>
        <mxCell id="3ZTK0G1BTgdR5SrSawnU-12" value="num2 = input.nextInt();" style="shape=parallelogram;html=1;strokeWidth=2;perimeter=parallelogramPerimeter;whiteSpace=wrap;rounded=1;arcSize=12;size=0.23;" vertex="1" parent="WIyWlLk6GJQsqaUBKTNV-1">
          <mxGeometry x="720" y="440" width="360" height="40" as="geometry" />
        </mxCell>
        <mxCell id="3ZTK0G1BTgdR5SrSawnU-17" style="edgeStyle=orthogonalEdgeStyle;rounded=0;orthogonalLoop=1;jettySize=auto;html=1;exitX=0.5;exitY=1;exitDx=0;exitDy=0;entryX=0.5;entryY=0;entryDx=0;entryDy=0;" edge="1" parent="WIyWlLk6GJQsqaUBKTNV-1" source="3ZTK0G1BTgdR5SrSawnU-14" target="3ZTK0G1BTgdR5SrSawnU-16">
          <mxGeometry relative="1" as="geometry" />
        </mxCell>
        <mxCell id="3ZTK0G1BTgdR5SrSawnU-14" value="resultado = num1 + num2;" style="rounded=0;whiteSpace=wrap;html=1;" vertex="1" parent="WIyWlLk6GJQsqaUBKTNV-1">
          <mxGeometry x="720" y="520" width="360" height="40" as="geometry" />
        </mxCell>
        <mxCell id="3ZTK0G1BTgdR5SrSawnU-16" value="Imprimir(&quot;El resultado es: &quot; + resultado);" style="shape=parallelogram;html=1;strokeWidth=2;perimeter=parallelogramPerimeter;whiteSpace=wrap;rounded=1;arcSize=12;size=0.23;" vertex="1" parent="WIyWlLk6GJQsqaUBKTNV-1">
          <mxGeometry x="720" y="600" width="360" height="40" as="geometry" />
        </mxCell>
        <mxCell id="3ZTK0G1BTgdR5SrSawnU-18" value="Fin" style="strokeWidth=2;html=1;shape=mxgraph.flowchart.start_1;whiteSpace=wrap;" vertex="1" parent="WIyWlLk6GJQsqaUBKTNV-1">
          <mxGeometry x="720" y="680" width="360" height="40" as="geometry" />
        </mxCell>
        <mxCell id="3ZTK0G1BTgdR5SrSawnU-19" style="edgeStyle=orthogonalEdgeStyle;rounded=0;orthogonalLoop=1;jettySize=auto;html=1;exitX=0.5;exitY=1;exitDx=0;exitDy=0;entryX=0.5;entryY=0;entryDx=0;entryDy=0;entryPerimeter=0;" edge="1" parent="WIyWlLk6GJQsqaUBKTNV-1" source="3ZTK0G1BTgdR5SrSawnU-16" target="3ZTK0G1BTgdR5SrSawnU-18">
          <mxGeometry relative="1" as="geometry" />
        </mxCell>
      </root>
    </mxGraphModel>
  </diagram>
</mxfile>
